<svg xmlns="http://www.w3.org/2000/svg" width="154" height="150" viewBox="0 0 154 150">
    <g fill="none" fill-rule="evenodd">
        <path fill="#E0E0E0" fill-rule="nonzero" d="M23.449 69.026c6.248-.109 11.916 2.79 15.551 7.954 3.617 5.137 4.547 11.705 2.486 17.569-.545 1.585-1.435 3.142-2.64 4.618L25.5 115.715a1.61 1.61 0 0 1-1.226.604 1.61 1.61 0 0 1-1.246-.56L9.11 99.68c-1.252-1.424-2.196-2.951-2.801-4.529-2.26-5.777-1.56-12.374 1.875-17.634 3.453-5.287 9.017-8.383 15.265-8.492zm.2 11.463a7.59 7.59 0 1 0 .264 15.178 7.59 7.59 0 0 0-.265-15.178z"/>
        <path fill="#DEDEDE" fill-rule="nonzero" d="M144.05 27.399c-3.731-.591-7.37.668-9.98 3.454-2.599 2.771-3.708 6.626-2.967 10.31.193.995.594 2.002 1.192 2.987l6.599 11.032c.149.25.399.42.683.465a.974.974 0 0 0 .793-.231l9.687-8.456c.869-.747 1.563-1.582 2.058-2.476 1.84-3.269 1.975-7.277.361-10.716-1.622-3.456-4.694-5.778-8.425-6.37zm-1.083 6.846a4.59 4.59 0 1 1-1.436 9.066 4.59 4.59 0 0 1 1.436-9.066z"/>
        <path fill="#00E226" fill-rule="nonzero" d="M139.751 26.784c-3.776-.132-7.234 1.561-9.486 4.644-2.24 3.068-2.872 7.029-1.688 10.595.313.964.834 1.915 1.548 2.82l7.893 10.146c.179.23.447.367.735.378.287.01.565-.11.759-.326l8.584-9.573c.772-.848 1.359-1.761 1.741-2.709 1.427-3.469 1.074-7.464-.947-10.68-2.032-3.233-5.363-5.163-9.139-5.295zm-.242 6.928a4.59 4.59 0 1 1-.32 9.173 4.59 4.59 0 0 1 .32-9.173z"/>
        <path stroke="#004F6C" stroke-dasharray="3.3" stroke-width="1.1" d="M138.756 59.063c-18.653-13.53-37.382-16.913-56.19-10.148-28.21 10.148-28.21 66.555-56.91 70.055"/>
        <path fill="#DFBBA7" d="M116.628 90.646c6.835 17.816-5.675 20.663-5.675 20.663L98.231 73.402s8.636-8.2 18.397 17.244"/>
        <path fill="#E2E2E2" d="M64.09 5.473c-15.32 6.923-22.151 25.02-15.228 40.34 6.924 15.32 25.02 22.15 40.34 15.227 15.32-6.923 22.15-25.02 15.227-40.34-6.924-15.32-25.02-22.15-40.34-15.227" opacity=".656"/>
        <path fill="#267F96" d="M105.675 87.272l-6.666 3.012-12.162-26.91 6.666-3.013z"/>
        <path fill="#FFF" d="M47.32 28.55l-.416-5.851 58.89-4.19.417 5.854zM45.467 41.306l-.776-10.912 64.068-4.556.777 10.911z"/>
        <path fill="#004F6C" d="M65.009 6.789c-14.768 6.674-21.353 24.118-14.68 38.887 6.675 14.768 24.12 21.353 38.888 14.679 14.768-6.675 21.354-24.12 14.68-38.887C97.221 6.699 79.776.115 65.008 6.788M90.57 63.35c-16.42 7.42-35.815.099-43.236-16.321-7.42-16.42-.1-35.815 16.32-43.235 16.42-7.42 35.815-.1 43.236 16.32 7.42 16.42.099 35.815-16.32 43.236M118.578 117.253l-6.349 2.877a4.35 4.35 0 0 1-5.756-2.166l-20.135-44.43a4.349 4.349 0 0 1 2.166-5.757l6.35-2.877a4.35 4.35 0 0 1 5.756 2.166l20.134 44.431a4.349 4.349 0 0 1-2.166 5.756"/>
        <path fill="#FFD8C2" d="M121.317 91.512a3.888 3.888 0 0 0-.348-2.973 3.915 3.915 0 0 0-5.32-1.507l-9.17 5.12a3.915 3.915 0 0 0-1.508 5.319 3.917 3.917 0 0 0 5.32 1.508l9.17-5.12a3.887 3.887 0 0 0 1.856-2.347M111.528 75.725a3.884 3.884 0 0 0-.153-2.988 3.914 3.914 0 0 0-5.21-1.85l-7.077 3.366a3.914 3.914 0 0 0-.513 6.77c.27.183.568.333.884.445.984.35 2.045.295 2.988-.153l7.078-3.368a3.884 3.884 0 0 0 2.003-2.222M117.564 79.704a3.915 3.915 0 0 0-5.319-1.508l-9.17 5.12a3.915 3.915 0 0 0-1.508 5.319 3.913 3.913 0 0 0 5.32 1.508l9.17-5.12a3.915 3.915 0 0 0 1.507-5.32M123.046 102.36a3.883 3.883 0 0 0 .228-2.983 3.881 3.881 0 0 0-1.947-2.272 3.883 3.883 0 0 0-2.983-.229l-7.109 2.325a3.877 3.877 0 0 0-2.27 1.948 3.878 3.878 0 0 0-.23 2.982c.28.858.831 1.553 1.526 2.023a3.906 3.906 0 0 0 3.405.478l7.109-2.325a3.886 3.886 0 0 0 2.27-1.947"/>
        <path fill="#FFD8C2" d="M92.052 66.73s-2.36-.825-3.31 3.65c-.952 4.475-2.161 8.284-4.817 12.222-5.083 7.535-.426 13.965.248 18.927.673 4.961-2.488 9.286-2.488 9.286l20.345 13.722 4.384-6.703-8.14-18.731s-.537-4.14-3.444-10.485c-2.906-6.346.919-15.923.323-18.177-.824-3.114-3.101-3.71-3.101-3.71"/>
        <path fill="#DFBBA7" d="M96.614 98.06c1.696 7.185 2.85 5.342 3.493 9.525.122.794.263 1.703.443 2.646-.715 1.807-1.911 4.095-3.882 6.946-6.462 9.346-1.579 11.084-1.579 11.084l6.45-2.822 4.981-7.383c-.015-.031-.033-.06-.047-.092L96.299 92.128l.315 5.932z"/>
        <path fill="#38B9DB" d="M97.939 138.588l-27.563-18.592 7.793-11.553 27.563 18.591z"/>
        <path fill="#30A1BF" d="M97.939 138.588l-13.492-9.1 7.793-11.554 13.492 9.1z"/>
        <path fill="#004F6C" d="M93.399 149.174l-36.993-1.743 14.078-32.892 31.806 21.453z"/>
        <path fill="#014057" d="M93.399 149.174l-19.627-1.471 12.95-22.212 15.568 10.501z"/>
        <path fill="#000" d="M91.51 67.383s-1.721-.825-2.345 1.761c-.625 2.588-.83 3.982-.83 3.982l3.976.972s2.03-5.436-.801-6.715M97.877 79.045a3.153 3.153 0 0 1 1.454-4.216l2.057-1.001a.473.473 0 0 1 .633.218l2.346 4.82a.473.473 0 0 1-.218.632l-2.056 1.002a3.153 3.153 0 0 1-4.216-1.455M102.049 88.284a3.153 3.153 0 0 1 1.287-4.27l2.016-1.08a.474.474 0 0 1 .64.192l2.535 4.723a.474.474 0 0 1-.193.642l-2.015 1.08a3.153 3.153 0 0 1-4.27-1.287M105.3 97.24a3.154 3.154 0 0 1 1.288-4.27l2.015-1.08a.473.473 0 0 1 .641.192l2.535 4.723a.473.473 0 0 1-.193.641l-2.016 1.082a3.153 3.153 0 0 1-4.27-1.288M109.264 104.208a3.154 3.154 0 0 1 1.918-4.026l2.157-.764a.473.473 0 0 1 .603.288l1.792 5.053a.474.474 0 0 1-.289.604l-2.155.764a3.153 3.153 0 0 1-4.026-1.919" opacity=".084"/>
        <path fill="#38B9DB" fill-rule="nonzero" d="M15.982 69.314c6.172-.978 12.189 1.105 16.507 5.712 4.297 4.584 6.131 10.958 4.906 17.051-.319 1.646-.983 3.312-1.972 4.94l-10.912 18.246a1.61 1.61 0 0 1-1.13.768 1.61 1.61 0 0 1-1.312-.381L6.05 101.666c-1.438-1.236-2.586-2.617-3.404-4.095-3.042-5.407-3.268-12.036-.597-17.724 2.683-5.716 7.762-9.556 13.934-10.533zm1.793 11.323a7.59 7.59 0 1 0 2.374 14.993 7.59 7.59 0 0 0-2.374-14.993z"/>
    </g>
</svg>
