<svg xmlns="http://www.w3.org/2000/svg" xmlns:xlink="http://www.w3.org/1999/xlink" width="198" height="161" viewBox="0 0 198 161">
    <defs>
        <circle id="a" cx="26.212" cy="26.212" r="26.212"/>
        <circle id="c" cx="56.792" cy="56.792" r="56.792"/>
        <path id="e" d="M0 .123h16.132v43.718H0z"/>
        <circle id="g" cx="26.212" cy="26.212" r="26.212"/>
    </defs>
    <g fill="none" fill-rule="evenodd">
        <g transform="translate(144.65 36.25)">
            <mask id="b" fill="#fff">
                <use xlink:href="#a"/>
            </mask>
            <use fill="#2E9EBC" xlink:href="#a"/>
            <path fill="#F7F7F7" d="M23.76 10.19c.305-.022 2.764 3.09 3.7 3.35.13-.587.218-1.022.435-.848.218.174 1.219 1.262 2.611 1.48l.249.038c1.334.209 2.787.497 1.927 2.442 2.198.414 1.588 1.284.805 2.83-.377.743-.472 1.573-.468 2.233v.014c.766.09 1.535.755 1.426 1.611-.186 1.456-1.723 2.863-2.498 2.041a59.847 59.847 0 0 1-.258 4.11 9.267 9.267 0 0 1-2.073.878 386.282 386.282 0 0 0 .095 1.322l.04.534-.006-.076.044.571v-.003c.034-.01.55.178.702.492.049.1.076.204.084.31l-.155.017a3.116 3.116 0 0 1 1.46.14c.785.051 1.582.114 2.063.384.8.45 10.255 7.47 9.796 11.395-.269 2.294-5.21 5.423-6.51 5.567l-.087.005c-.176 0-.39-.179-.607-.446l-.267.136.024.035c.118.165-.429.839-1.077.855l-.122-.005a.53.53 0 0 1-.19-.063l1.965 4.509a.2.2 0 0 1-.103.263l-1.277.556a73.488 73.488 0 0 0 1.004 3.58c2.2 7.148 3.698 11.446 3.698 11.446-1.81 1.085-3.928 1.297-5.324 1.295.756 6.561 1.586 13.083 2.126 15.136l-.002.001c.722 2.424 4.222 1.978 3.65 4.741-1.066.2-4.564-.666-6.263-1.966 0 0-.334-1.3-.767-2.898-.365-1.116-2.113-10.377-3.582-17.799a186.187 186.187 0 0 0-4.622-.183c.293 6.27.76 13.952.92 17.221l.006.112c.17 1.532.087 2.964.04 3.38-1.75.925-6.197 2-8.496 1.15.225-2.124 4.34-.741 5.04-4.115l-.03-.321c-.321-3.57-.96-9.435-1.563-15.103-.91-.11-1.953-.337-2.672-.801-1.05-6.097 1.149-23.04 1.249-28.087 0 0-2.399 10.995-2.349 14.043.004.095-.348.2-.83.28l-.002-.001.003.055c.008.169.019.347.034.516l.012.12c.016.141.035.272.058.38.125.574.663.287.788 1.012.124.724.368 2.075.5 2.898.023.15-.15.413-.613.113-.275-.1-.525-1.95-.9-2.024-.374-.075.613 4.135.55 4.398-.824.8-1.918.328-2.474.1-.637-.263-1.186-.638-1.037-1.987.15-1.35.382-2.708.5-3.236.095-.423.236-1.041.313-1.661.022-.18.038-.359.047-.533v-.084c-.283-.055-.462-.153-.447-.308l.006.06c-.55-9.382 5.51-22.206 6.231-22.893l.024-.019c.386-.257 1.512-.587 2.559-.79.328-.157 1.142-.242 1.558-.335l-.005.024c.11-.066.241-.147.383-.236.33-.41.667-.707.945-.841l-.002.071c.008-.055.015-.112.02-.172.045-.533-.041-1.249-.133-1.908l-.001.002-.17-.02c-2.124-.255-3.671-1.071-3.702-1.537a12.732 12.732 0 0 0 .03-.406l-.025.351c.02-.23.034-.465.043-.707l-.017.356c.008-.135.015-.272.02-.41l-.003.054c.004-.106.007-.214.009-.322l-.007.268c.006-.162.01-.326.01-.493v-.286l-.003-.329c-.047-2.2-.412-4.732-.812-7.129-.217-1.306-.248-2.112-.056-2.698h.042c-1.501.087-3.199-1.828.022-4.94.13-.13 1.023.37 1.023.37.565-2.458 1.414-2.61 1.719-2.632zm10.333 30.117c-.36 2.082-.418 4.45-.232 6.979.29.334.63.816 1.057 1.417l-.021-.03.536-.215c-.018-.083-.022-.145-.01-.18l.02-.024c1.674-.925 3.648-3.924 3.298-4.498-1.362-2.238-4.648-3.449-4.648-3.449z" mask="url(#b)"/>
        </g>
        <g fill="#FC0">
            <path d="M128.404 136.704l3.233 5.614 6.472-.239a.51.51 0 0 1 .394.853l-4.339 4.807 2.223 6.084a.507.507 0 0 1-.682.638l-5.916-2.646-5.1 3.999a.508.508 0 0 1-.816-.455l.685-6.44-5.378-3.615a.512.512 0 0 1 .181-.923l6.338-1.334 1.778-6.23a.505.505 0 0 1 .927-.113zM100.795 126.472l4.617 10.911 11.802 1.01c.816.072 1.154 1.1.526 1.635l-8.948 7.76 2.68 11.539c.19.8-.682 1.435-1.382 1.007l-10.149-6.122-10.148 6.122c-.7.418-1.572-.207-1.382-1.007l2.68-11.54-8.957-7.759c-.62-.544-.282-1.563.535-1.635l11.802-1.01 4.617-10.91c.316-.764 1.388-.764 1.707 0zM72.485 136.37l1.34 6.338 6.23 1.773a.51.51 0 0 1 .111.933l-5.612 3.23.234 6.474c.019.45-.515.7-.847.396l-4.808-4.344-6.085 2.227a.508.508 0 0 1-.637-.685l2.642-5.914-3.998-5.1a.512.512 0 0 1 .458-.821l6.44.69 3.616-5.375a.505.505 0 0 1 .916.178z"/>
        </g>
        <g transform="translate(42.35 .5)">
            <mask id="d" fill="#fff">
                <use xlink:href="#c"/>
            </mask>
            <use fill="#004F6C" xlink:href="#c"/>
            <g mask="url(#d)">
                <path fill="#FFD8C2" d="M63.827 66.184c-.092 3.57-.893 10.119.862 11.665 1.756 1.547 3.36 2.963 3.36 2.963-4.606 8.42-9.485 10.061-20.3.323 2.47-.46 2.71-3.863 2.743-5.324.034-1.46.24-9.368.24-9.368l13.095-.259z"/>
                <path fill="#E9CDBC" d="M63.827 66.184l-13.094.26s-.126 4.78-.197 7.594c4.6 1.17 9.17 1.258 13.122.771-.253-2.653.109-6.278.169-8.625"/>
                <path fill="#FFD8C2" d="M70.964 41.87c2.097-4.718 6.365-2.845 5.99 2.994-.374 5.84-3.967 10.482-7.562 3.07 1.198-4.642 1.572-6.064 1.572-6.064"/>
                <path fill="#B3B3B3" d="M31.725 199.705c7.098-1.29 43.664 0 50.762 1.721 1.72-8.819-7.314-46.675-9.034-47.105-1.72-.43-26.026 3.871-26.671 4.517"/>
                <path fill="#17465C" d="M79.045 145.932c1.183 12.422.554 78.003 1.15 102.503-4.26 2.535-11.043.919-11.043.919-1.07-16.222-4.152-79.75-6.098-86.458-3.682-.993-8.84.946-8.84.946-1.691 5.17-6.979 83.11-8.24 89.205-5.861 3.69-10.804 1.615-10.804 1.615 2.139-14.635.769-101.376.857-106.364 5.669-5.4 41.023-2.79 43.018-2.366"/>
                <path fill="#38B9DB" d="M46.31 78.715c-1.612 1.13-5.12 2.42-5.12 2.42l-2.044 67.485s27.317 1.936 37.856-1.183c5.327-1.576-4.194-63.882-4.355-64.366-.162-.484-4.477-3.913-4.477-3.913s-8.86 4.61-11.387 4.826c-2.527.216-10.472-5.269-10.472-5.269"/>
                <path fill="#DCDFE0" d="M69.743 80.167c-1.668 16.24 4.678 98.244 6.614 130.992 10.324.968 17.422-2.259 18.39-3.55 1.452-11.937-9.571-55.44-9.571-68.99 0-13.55-2.044-46.998-2.366-50.063-.323-3.066-13.067-8.39-13.067-8.39"/>
                <path fill="#FFF" d="M56.232 91.137c-.645 5.485-3.912 47.105-3.589 48.073.323.968 5.969 7.42 6.13 6.937.161-.484 4.84-5.808 4.84-6.937 0-1.13-5.001-48.073-5.001-48.073h-2.38z"/>
                <path fill="#FFF" d="M52.723 87.91c.968 1.29 2.34 4.598 3.065 4.92.726.323 2.662.323 3.065 0 .404-.322 2.904-4.274 2.904-4.274L57.24 84.36s-4.033 3.065-4.517 3.55"/>
                <path fill="#31A3C0" d="M50.424 76.053c-1.29.753-4.987 2.608-4.987 3.038 0 .43 3.98 11.185 6.237 12.906 3.281-3.872 5.11-6.83 5.11-6.83l5.914 5.54c5.54-5.163 6.05-10.823 5.996-11.145-.054-.323-4.073-2.702-4.812-3.536-2.366 4.033-7.099 7.958-7.099 7.958s-5.767-5.672-6.359-7.93"/>
                <path fill="#17465C" d="M72.96 25.147c1.572 4.418 2.47 8.537 1.946 11.456-.524 2.92-.673 9.284-.898 9.808-.225.525-1.498.674-1.498.674s.899-15.648-.898-22.237"/>
                <path fill="#FFD8C2" d="M71.462 24.024c2.845 7.937.542 17.657 1.947 40.132.224 3.594-17.207 10.924-31.066 2.017-1.28-1.792-4.873-36.758-2.028-40.951 2.845-4.193 22.612-10.931 31.147-1.198"/>
                <path fill="#FFD8C2" d="M39.192 42.443c-2.097-4.717-6.364-2.845-5.99 2.995.375 5.84 5.99 11.531 7.637 5.165-1.198-4.641-1.647-8.16-1.647-8.16"/>
                <path fill="#17465C" d="M39.566 22.976c-.973-6.139 11.156-11.905 19.991-11.68C68.392 11.52 70.314 8.8 70.314 8.8c2.247 3.445 12.529 13.727 2.122 17.62-3.22-3.295-13.178-6.963-18.494-4.417-5.316 2.545-11.63 2.096-13.277 4.568 3.243 11.68.099 12.728.623 14.675.524 1.946 1.048 6.288.749 6.812-.3.524-1.797.3-1.797.3s-.749-5.091-1.871-6.889c-1.124-1.796-8.486-17.594 1.197-18.493"/>
                <path fill="#ECF0F1" d="M69.366 79.36c-.322 5.485.968 59.178 3.119 72.191 1.506-18.068 2.581-43.691 3.765-49.176-1.077-1.613-3.227-3.872-3.227-3.872l2.796-.752c.645-3.227.753-14.627.645-15.057-.107-.43-7.098-3.334-7.098-3.334"/>
                <path fill="#DCDFE0" d="M44.415 79.683c1.452 16.83-2.742 97.599-4.678 130.347-10.324.968-19.358-1.614-20.326-2.904-1.452-11.938 12.744-56.031 12.744-69.582 0-13.551-1.13-46.407-.807-49.472.323-3.066 13.067-8.39 13.067-8.39"/>
                <path fill="#ECF0F1" d="M44.791 78.876c.323 5.485.082 59.581-2.07 72.594-1.505-18.067-3.63-44.094-4.812-49.58 1.076-1.612 3.226-3.87 3.226-3.87l-2.796-.753c-.645-3.227-.753-14.627-.645-15.057.107-.43 7.097-3.334 7.097-3.334"/>
                <g transform="translate(16.947 87.357)">
                    <mask id="f" fill="#fff">
                        <use xlink:href="#e"/>
                    </mask>
                    <path fill="#DCDFE0" d="M14.51.123C12.682 4.103-2.537 38.248.367 43.841c6.56-.215 15.272-8.28 15.272-8.28S17.306.338 14.509.123" mask="url(#f)"/>
                </g>
                <path fill="#FFD8C2" d="M65.294 115.863c3.314-1.726 8.615-3.029 12.062-3.528 3.446-.498 7.421-1.019 8.267-.063 1.322 1.496 3.51 7.768.261 9.66-3.248 1.895-16.584.69-19.146 2.16-1.505-.379-1.444-8.23-1.444-8.23"/>
                <path fill="#E9CDBC" d="M79.83 112a499.934 499.934 0 0 0 1.461 10.917c2.01-.172 3.691-.458 4.593-.984 3.249-1.894 1.06-8.165-.261-9.66-.647-.732-3.122-.599-5.793-.274"/>
                <path fill="#DCDFE0" d="M67 114.958c4.41 1.291 3.12 8.496 3.12 8.496-6.56 5.808-42.374 17.1-51.73 12.368-1.829-3.764-1.937-6.668.537-10.54 2.474-3.871 24.198-6.56 48.073-10.324"/>
                <path fill="#D4D7D8" d="M82.595 87.641c1.828 3.98 15.379 37.964 12.475 43.557-6.56-.215-13.12-9.142-13.12-9.142s-2.151-34.2.645-34.415"/>
                <path fill="#FFD8C2" d="M45.303 115.738c-3.146-2.017-8.308-3.791-11.696-4.598-3.388-.806-7.3-1.682-8.227-.806-1.452 1.371-4.195 7.42-1.13 9.598 3.065 2.178 16.455 2.178 18.875 3.872 1.532-.242 2.178-8.066 2.178-8.066"/>
                <path fill="#E9CDBC" d="M44.82 115.442c-.277 2.29-.919 6.36-2.018 6.533-2.42-1.694-15.81-1.694-18.874-3.871a3.08 3.08 0 0 1-1.06-1.358c-.013 1.282.352 2.454 1.382 3.186 3.065 2.178 16.455 2.178 18.875 3.872 1.532-.242 2.178-8.066 2.178-8.066-.155-.1-.32-.198-.484-.296"/>
                <path fill="#D4D7D8" d="M45.276 114.958c-4.41 1.291-3.12 8.496-3.12 8.496 6.561 5.808 42.374 17.1 51.731 12.368 2.393-3.387 2.259-6.774-.537-10.54-2.74-3.688-24.199-6.56-48.074-10.324"/>
                <path fill="#DCDFE0" d="M91.091 127.218c-.127.046-.413-.557-1.059-1.371-.308-.417-.75-.856-1.246-1.325a14.887 14.887 0 0 0-1.787-1.34 15.292 15.292 0 0 0-3.71-1.675c-1.006-.302-1.665-.396-1.662-.526-.002-.104.689-.227 1.792-.061 1.1.154 2.587.64 4.032 1.541.72.456 1.35.975 1.876 1.494.508.54.934 1.058 1.203 1.554.567.975.655 1.682.561 1.71"/>
            </g>
        </g>
        <g transform="translate(0 36.25)">
            <mask id="h" fill="#fff">
                <use xlink:href="#g"/>
            </mask>
            <use fill="#2E9EBC" xlink:href="#g"/>
            <path fill="#F7F7F7" d="M32.806 15.884l-.138.093c.438.736.456 1.76.134 3.69-.08.485-.16.974-.237 1.464.336.18.526.364.537.45.033.261-.444 2.666-.687 2.805-.036.02-.144.028-.302.026-.258 2.214-.382 4.344-.219 6.14-.038.576-1.996 1.595-4.656 1.873-.112.794-.215 1.66-.159 2.3.015.191.047.363.096.507.008-.045.01-.068.01-.068.515.355 1.12.732 1.511.972l-.006-.03c.539.12 1.475.17 1.8.388 1.277.241 2.677.648 3.15.964.722.48 8.19 16.135 7.53 27.553l-.007-.002c-.039.146-.24.241-.535.298a4.996 4.996 0 0 0 .023.39l-.008-.091c.007.088.015.177.025.266l-.017-.175c.009.104.02.21.033.315l-.016-.14c.01.09.02.179.032.268l.03.215.025.158c.094.581.22 1.13.31 1.533.141.634.42 2.268.6 3.89.18 1.624-.48 2.074-1.247 2.39-.668.275-1.983.841-2.974-.12-.076-.316 1.111-5.379.66-5.289-.45.09-.75 2.314-1.081 2.434-.556.36-.765.045-.736-.135.157-.99.45-2.614.6-3.485.15-.872.797-.526.947-1.217.042-.192.072-.445.094-.709l.003-.037c.008-.104.015-.21.02-.314l.008-.127.004-.1c-.58-.095-1.005-.222-1-.336.06-3.666-2.825-16.887-2.825-16.887.12 6.07 2.885 27.043 1.623 34.375-.915.59-2.264.861-3.4.984-.708 6.652-1.446 13.442-1.82 17.599l-.028.326c.841 4.057 5.789 2.394 6.06 4.948-2.765 1.022-8.114-.27-10.217-1.382-.057-.5-.156-2.223.048-4.065l.003-.06c.19-3.888.756-13.194 1.11-20.782-.853.022-1.775.053-2.73.09v4.538h-3.693c-1.5 7.668-3.009 15.533-3.417 16.915l-.025.079c-.52 1.923-.921 3.486-.921 3.486-2.043 1.562-6.25 2.604-7.532 2.363-.687-3.322 3.521-2.786 4.392-5.698a.086.086 0 0 0-.006-.004c.621-2.358 1.56-9.62 2.434-17.141H5.558V68.121h5.099l-.004-.076-.03-.46c-.387-.008-.671-.064-.758-.177l-.025-.053-.037-.083c-.545-1.37-1.005-9.468-1.005-11.936 0-2.524 1.963-5.369 3.886-11.498 1.858-5.921 3.557-6.926 4.464-7.06.541-.274 1.411-.46 2.288-.609 0-.003.88-.484 2.052-.334l-.137-.014c.324-.313.88-.758.88-.758l.009-.116c.061-.777.15-1.993.215-2.899l.001-.022a11.05 11.05 0 0 1-2.493-1.055 71.865 71.865 0 0 1-.31-4.944c-.93.993-2.781-.7-3.004-2.451-.197-1.547 1.985-2.572 2.968-1.524a4.133 4.133 0 0 0-.09-.265c-.13-.34-.026-3.741.471-5.338.497-1.595 6.318-6.635 12.808-.565zM17.407 46.905l-.058.15c-.372.952-.848 1.867-1.38 2.832-3.485 6.53-1.402 11.178-1.482 16.506.02.264-.357.507-.905.704.035.347.075.7.115 1.024h.513c2.258-7.36 3.588-15.024 3.197-21.216zm9.688-12.067c.95.457 2.459 2.496 2.739 4.679l-.008-.059c.472.075.9.29 1.287.653 1.488 1.404 2.024 4.756 2.211 7.32.032.442-.058.766-.27.964a.702.702 0 0 1-.361.178c-.035.127-.119.212-.222.212-.154 0-.293-.186-.311-.415-.02-.228.09-.413.242-.412.08 0 .157.05.214.132a.26.26 0 0 0 .106-.064c.107-.104.152-.312.13-.6-.18-2.473-.681-5.69-2.045-6.977-.336-.317-.7-.492-1.108-.532l-.18-.009c-1.086.139-.806 2.665-.51 5.34.083.737.167 1.5.23 2.255.021.264.15.403.271.476.044-.082.112-.132.191-.132.153 0 .293.186.311.415.02.228-.09.413-.243.412-.096 0-.187-.074-.246-.185a1.09 1.09 0 0 1-.755-.987 78.381 78.381 0 0 0-.228-2.242c-.329-2.966-.614-5.537.796-5.814-.253-1.616-1.39-3.354-2.184-4.062-.015-.142-.06-.375-.057-.546zm-4.852.013c0 .101-.015.218-.022.248-.03.03-.366.505-.39.553-.2.412.162 1.017.709 1.934.796 1.334 2 3.35 2.35 6.483l-.027-.222c.503.106.889.697.889 1.41 0 .788-.471 1.427-1.052 1.427-.58 0-1.051-.639-1.051-1.427 0-.638.308-1.179.734-1.361-.366-2.898-1.455-4.722-2.256-6.064-.605-1.013-1.042-1.744-.728-2.39.183-.377.803-.602.844-.591z" mask="url(#h)"/>
        </g>
    </g>
</svg>
