<svg xmlns="http://www.w3.org/2000/svg" xmlns:xlink="http://www.w3.org/1999/xlink" width="197" height="142" viewBox="0 0 197 142">
    <defs>
        <path id="a" d="M.286.153h110.27v110.27H.286z"/>
        <path id="b" d="M28.107 51.15c.197.23.403.45.614.662-4.01.318-7.788-.942-10.253-3.839a10.5 10.5 0 0 1-1.358-2.045L.427 16.912 27.344.075l1.31 2.272L7.462 15.603l19.09 33.205"/>
        <path id="d" d="M21.16 22.133c-6.095 5.184-14.418 5.41-18.591.505-4.173-4.905-2.615-13.084 3.48-18.27 6.094-5.184 14.418-5.41 18.59-.505"/>
        <path id="f" d="M6.049 4.37c-6.095 5.184-7.653 13.363-3.48 18.268 4.173 4.905 12.496 4.68 18.59-.505 6.096-5.185 7.654-13.364 3.481-18.27C22.63 1.499 19.655.328 16.43.328c-3.467 0-7.223 1.355-10.381 4.041"/>
        <path id="h" d="M6.049 4.37c-6.095 5.184-7.653 13.363-3.48 18.268 4.173 4.905 12.496 4.68 18.59-.505 6.096-5.185 7.654-13.364 3.481-18.27C22.63 1.499 19.655.328 16.43.328c-3.467 0-7.223 1.355-10.381 4.041"/>
        <path id="j" d="M6.049 4.37c-6.095 5.184-7.653 13.363-3.48 18.268 4.173 4.905 12.496 4.68 18.59-.505 6.096-5.185 7.654-13.364 3.481-18.27C22.63 1.499 19.655.328 16.43.328c-3.467 0-7.223 1.355-10.381 4.041z"/>
        <path id="l" d="M6.049 4.37c-6.095 5.184-7.653 13.363-3.48 18.268 4.173 4.905 12.496 4.68 18.59-.505 6.096-5.185 7.654-13.364 3.481-18.27C22.63 1.499 19.655.328 16.43.328c-3.467 0-7.223 1.355-10.381 4.041"/>
        <path id="n" d="M6.049 4.37c-6.095 5.184-7.653 13.363-3.48 18.268 4.173 4.905 12.496 4.68 18.59-.505 6.096-5.185 7.654-13.364 3.481-18.27C22.63 1.499 19.655.328 16.43.328c-3.467 0-7.223 1.355-10.381 4.041"/>
        <path id="p" d="M6.049 4.37c-6.095 5.184-7.653 13.363-3.48 18.268 4.173 4.905 12.496 4.68 18.59-.505 6.096-5.185 7.654-13.364 3.481-18.27C22.63 1.499 19.655.328 16.43.328c-3.467 0-7.223 1.355-10.381 4.041z"/>
        <path id="r" d="M6.049 4.37c-6.095 5.184-7.653 13.363-3.48 18.268 4.173 4.905 12.496 4.68 18.59-.505 6.096-5.185 7.654-13.364 3.481-18.27C22.63 1.499 19.655.328 16.43.328c-3.467 0-7.223 1.355-10.381 4.041"/>
        <path id="t" d="M6.049 4.37c-6.095 5.184-7.653 13.363-3.48 18.268 4.173 4.905 12.496 4.68 18.59-.505 6.096-5.185 7.654-13.364 3.481-18.27C22.63 1.499 19.655.328 16.43.328c-3.467 0-7.223 1.355-10.381 4.041"/>
        <path id="v" d="M0 .172h30.3V32.76H0z"/>
        <path id="x" d="M81.85 126.6L.302 112.686 10.324.11l82.722.707z"/>
        <path id="z" d="M19.451 8.452c.864.332 1.766.38 2.606.194a4.53 4.53 0 0 1-5.74 2.333L3.46 6.03A4.53 4.53 0 0 1 .763.454c.498.701 1.2 1.27 2.064 1.602"/>
        <path id="B" d="M20.238 1.596A4.513 4.513 0 0 0 22.44.19a4.53 4.53 0 0 1-3.195 5.306L5.986 9.245a4.53 4.53 0 0 1-5.5-2.848c.819.262 1.722.296 2.612.045"/>
        <path id="D" d="M12.275 4.993c.56.19 1.135.199 1.667.058a2.892 2.892 0 0 1-3.602 1.633l-8.33-2.83A2.893 2.893 0 0 1 .15.365c.336.435.798.78 1.357.97"/>
        <path id="F" d="M12.519 4.87c.56.19 1.136.2 1.668.059a2.892 2.892 0 0 1-3.603 1.633l-8.329-2.83A2.893 2.893 0 0 1 .395.242c.335.435.798.78 1.356.97"/>
        <path id="H" d="M12.404 4.89c.56.191 1.136.2 1.667.059a2.892 2.892 0 0 1-3.602 1.633L2.14 3.752A2.891 2.891 0 0 1 .28.262c.336.435.798.78 1.357.97"/>
        <path id="J" d="M12.649 4.768c.558.19 1.136.198 1.667.058a2.892 2.892 0 0 1-3.602 1.634l-8.33-2.83A2.892 2.892 0 0 1 .524.14c.335.434.798.78 1.357.97"/>
        <path id="L" d="M12.533 4.788c.56.19 1.136.198 1.667.059a2.893 2.893 0 0 1-3.602 1.633L2.27 3.65A2.892 2.892 0 0 1 .41.16c.335.434.797.78 1.357.97"/>
        <path id="N" d="M12.778 4.666c.559.19 1.136.198 1.667.058a2.892 2.892 0 0 1-3.602 1.633l-8.329-2.83A2.893 2.893 0 0 1 .653.037c.336.435.798.78 1.358.97"/>
        <path id="P" d="M12.662 4.686c.56.19 1.136.199 1.668.058a2.892 2.892 0 0 1-3.602 1.634l-8.33-2.83A2.892 2.892 0 0 1 .539.057c.335.434.798.779 1.357.97"/>
        <path id="R" d="M12.313 5.158c.56.19 1.136.198 1.667.058a2.891 2.891 0 0 1-3.602 1.634l-8.33-2.83A2.893 2.893 0 0 1 .189.53c.336.434.798.779 1.357.97"/>
        <path id="T" d="M12.792 5.178c.56.19 1.135.198 1.667.058a2.892 2.892 0 0 1-3.602 1.634l-8.33-2.83A2.892 2.892 0 0 1 .668.55c.336.434.798.78 1.357.97"/>
        <path id="V" d="M12.442 5.056c.56.19 1.136.198 1.667.058a2.893 2.893 0 0 1-3.602 1.633l-8.329-2.83A2.893 2.893 0 0 1 .317.427c.336.435.798.78 1.358.97"/>
        <path id="X" d="M12.327 5.076c.559.19 1.135.198 1.667.058a2.892 2.892 0 0 1-3.602 1.633l-8.33-2.83A2.892 2.892 0 0 1 .203.447c.335.435.798.78 1.357.97"/>
        <path id="Z" d="M12.571 4.954c.56.19 1.136.198 1.667.057a2.892 2.892 0 0 1-3.602 1.634l-8.328-2.83A2.892 2.892 0 0 1 .446.325c.336.435.798.78 1.358.97"/>
    </defs>
    <g fill="none" fill-rule="evenodd">
        <path fill="#38B9DB" d="M70.375 100.78h.001L54.001 72.375 27.085 89.212l16.681 29.016c.369.724.819 1.411 1.36 2.046 4.604 5.414 13.79 5.164 20.516-.558 6.242-5.31 8.168-13.463 4.733-18.937"/>
        <path fill="#FFF" d="M60.295 109a21.022 21.022 0 0 0 3.854-4.317c-.077-.138-.144-.28-.228-.415l-6.36-11.032a21.212 21.212 0 0 1-3.421 3.69c-7.294 6.205-17.25 6.483-22.258.63l7.86 13.672c5.334 4.119 14.01 3.337 20.553-2.229"/>
        <g transform="translate(26.657 72.3)">
            <mask id="c" fill="#fff">
                <use xlink:href="#b"/>
            </mask>
            <path d="M28.107 51.15a12.018 12.018 0 0 1-1.555-2.342L7.462 15.603 28.654 2.347 27.344.075.427 16.912 17.11 45.928a10.5 10.5 0 0 0 1.358 2.045c2.465 2.897 6.244 4.157 10.253 3.839a11.832 11.832 0 0 1-.614-.663" mask="url(#c)"/>
        </g>
        <path fill="#013244" d="M49.194 91.192c-6.726 5.722-15.912 5.972-20.517.558-4.605-5.413-2.886-14.44 3.84-20.162 6.726-5.722 15.912-5.971 20.517-.558 4.605 5.414 2.886 14.44-3.84 20.162"/>
        <g transform="translate(27.251 68.14)">
            <mask id="e" fill="#fff">
                <use xlink:href="#d"/>
            </mask>
            <path d="M21.16 22.133c-6.095 5.184-14.418 5.41-18.591.505-4.173-4.905-2.615-13.084 3.48-18.27 6.094-5.184 14.418-5.41 18.59-.505 4.173 4.905 2.616 13.085-3.48 18.27" mask="url(#e)"/>
        </g>
        <g>
            <g transform="translate(27.251 68.14)">
                <mask id="g" fill="#fff">
                    <use xlink:href="#f"/>
                </mask>
                <path fill="#D1DDE8" d="M30.88 19.56l-.028-2.646-.619.007a6.015 6.015 0 0 0-5.436-3.317 6.016 6.016 0 0 0-5.365 3.431l-.618.007.028 2.645a6.02 6.02 0 1 0 12.038-.127" mask="url(#g)"/>
            </g>
            <g transform="translate(27.251 68.14)">
                <mask id="i" fill="#fff">
                    <use xlink:href="#h"/>
                </mask>
                <path fill="#E7EDF4" d="M24.897 22.997a6.02 6.02 0 1 1-.128-12.039 6.02 6.02 0 0 1 .128 12.04" mask="url(#i)"/>
            </g>
            <g transform="translate(27.251 68.14)">
                <mask id="k" fill="#fff">
                    <use xlink:href="#j"/>
                </mask>
                <path fill="#FFF" d="M18.958 15.685a6.01 6.01 0 0 0-.145 1.357c.005.466.068.918.173 1.353l11.722-.124c.095-.437.15-.89.144-1.357a6.008 6.008 0 0 0-.173-1.354l-11.721.125z" mask="url(#k)"/>
            </g>
            <g transform="translate(27.251 68.14)">
                <mask id="m" fill="#fff">
                    <use xlink:href="#l"/>
                </mask>
                <path fill="#D1DDE8" d="M21 7.333l-2.428-1.05-.246.568a6.014 6.014 0 0 0-5.24 3.617 6.015 6.015 0 0 0 .951 6.297l-.245.568 2.428 1.05a6.019 6.019 0 0 0 7.915-3.135A6.02 6.02 0 0 0 21 7.333" mask="url(#m)"/>
            </g>
            <g transform="translate(27.251 68.14)">
                <mask id="o" fill="#fff">
                    <use xlink:href="#n"/>
                </mask>
                <path fill="#E7EDF4" d="M21.707 14.198a6.02 6.02 0 1 1-11.05-4.78 6.019 6.019 0 0 1 7.915-3.135 6.019 6.019 0 0 1 3.135 7.915" mask="url(#o)"/>
            </g>
            <g transform="translate(27.251 68.14)">
                <mask id="q" fill="#fff">
                    <use xlink:href="#p"/>
                </mask>
                <path fill="#FFF" d="M12.61 16.649c.36.265.753.498 1.182.684a6.01 6.01 0 0 0 1.307.392l4.654-10.758a6.025 6.025 0 0 0-1.181-.684 6.01 6.01 0 0 0-1.307-.393L12.61 16.65z" mask="url(#q)"/>
            </g>
            <g transform="translate(27.251 68.14)">
                <mask id="s" fill="#fff">
                    <use xlink:href="#r"/>
                </mask>
                <path fill="#D1DDE8" d="M16.066 24.365l-.611-2.574-.603.143A6.013 6.013 0 0 0 8.818 19.9a6.014 6.014 0 0 0-4.475 4.53l-.603.144.612 2.574a6.02 6.02 0 0 0 11.714-2.782" mask="url(#s)"/>
            </g>
            <g transform="translate(27.251 68.14)">
                <mask id="u" fill="#fff">
                    <use xlink:href="#t"/>
                </mask>
                <path fill="#E7EDF4" d="M10.989 29.04a6.02 6.02 0 1 1-2.782-11.715 6.02 6.02 0 0 1 2.782 11.714" mask="url(#u)"/>
            </g>
            <path fill="#FFF" d="M30.833 91.357c.003.448.05.901.16 1.356.107.454.268.88.467 1.282l11.404-2.71a6.002 6.002 0 0 0-.158-1.355 5.983 5.983 0 0 0-.468-1.282l-11.405 2.71z"/>
        </g>
        <g>
            <path fill="#CCC" d="M54.034 62.87l-.61-2.575-.603.143a6.014 6.014 0 0 0-6.034-2.035 6.015 6.015 0 0 0-4.476 4.531l-.601.143.61 2.574a6.02 6.02 0 0 0 11.714-2.782"/>
            <path fill="#E7EDF4" d="M48.957 67.543a6.02 6.02 0 1 1-2.782-11.714 6.02 6.02 0 0 1 2.782 11.714"/>
            <path fill="#FFF" d="M41.55 61.722c.004.447.051.9.16 1.355.107.454.269.881.467 1.282l11.405-2.709a6.002 6.002 0 0 0-.16-1.355 6.013 6.013 0 0 0-.466-1.282L41.55 61.722z"/>
            <path fill="#CCC" d="M39.476 42.054l-.612-2.574-.602.143a6.013 6.013 0 0 0-6.034-2.035 6.015 6.015 0 0 0-4.475 4.53l-.602.144.611 2.574a6.02 6.02 0 0 0 11.714-2.782"/>
            <path fill="#EFEFEF" d="M34.398 46.728a6.02 6.02 0 1 1-2.782-11.714 6.02 6.02 0 0 1 2.782 11.714"/>
            <path fill="#FFF" d="M26.992 40.906c.003.448.05.902.159 1.356.107.454.269.88.467 1.282l11.405-2.708a6.031 6.031 0 0 0-.158-1.356 6.035 6.035 0 0 0-.468-1.282l-11.405 2.708z"/>
            <path fill="#CCC" d="M29.62 56.475l-2.492-2.607-.68.767c-6.123-2.295-14.02.676-18.821 7.51-3.812 5.427-4.665 11.861-2.736 16.777l-.692.779 3.696 3.684.002-.003c.37.343.762.667 1.182.962 6.304 4.428 15.874 1.668 21.376-6.164 5.311-7.562 4.998-15.664-.836-21.705"/>
            <path fill="#E7EDF4" d="M14.717 86.395c-.493-.041-.98-.118-1.459-.222L4.123 76.149l-1.861-2.042.68-.625.994 1.09 10.78 11.823zM18.42 86.242c-.368.063-.743.119-1.112.153L6.11 74.107l.68-.626 11.63 12.761zM21.49 85.38c-.313.126-.632.237-.952.334L9.958 74.107l.682-.626 10.85 11.9zM24.15 84.082c-.277.16-.555.32-.833.465L13.8 74.107l.688-.626 9.662 10.6zM26.498 82.443c-.243.194-.486.382-.736.562l-8.113-8.898.687-.625 8.162 8.96zM28.576 80.498c-.21.228-.424.444-.647.66l-6.432-7.051.688-.625 6.39 7.016zM30.43 78.212c-.18.257-.368.514-.563.757l-7.883-8.648.68-.625 7.766 8.516zM32.028 75.621c-.146.285-.305.57-.472.847l-9.573-10.503.68-.625 9.365 10.281zM33.313 72.669c-.111.326-.229.652-.368.972L21.983 61.617l.68-.626 10.65 11.678zM34.119 69.195a17.25 17.25 0 0 1-.187 1.167l-11.949-13.1.681-.626 11.455 12.56zM34.189 66.292L22.886 53.899l-.903-.994.681-.624 1.612 1.77 9.711 10.65c.104.528.166 1.056.202 1.59"/>
            <g transform="translate(.5 50.305)">
                <mask id="w" fill="#fff">
                    <use xlink:href="#v"/>
                </mask>
                <path fill="#EFEFEF" d="M26.564 24.484c-5.502 7.832-15.072 10.591-21.376 6.164-6.304-4.429-6.954-14.367-1.452-22.2C9.237.617 18.808-2.143 25.11 2.285c6.304 4.427 6.954 14.366 1.453 22.199" mask="url(#w)"/>
            </g>
            <path fill="#FFF" d="M18.447 51.918c-4.718 0-9.81 2.713-13.202 7.544C.229 66.602.822 75.662 6.569 79.7c1.858 1.305 4.028 1.925 6.284 1.925 4.717 0 9.808-2.714 13.202-7.545 5.015-7.14 4.423-16.2-1.324-20.237-1.859-1.305-4.029-1.925-6.284-1.925m0 .594c2.194 0 4.25.628 5.943 1.817 5.469 3.842 5.997 12.549 1.178 19.41-3.159 4.497-8.032 7.292-12.715 7.292-2.195 0-4.25-.629-5.943-1.818-5.469-3.842-5.998-12.548-1.18-19.41 3.16-4.497 8.033-7.291 12.717-7.291"/>
            <path fill="#004F6C" d="M155.878 141.868L72.853 127.7a4.218 4.218 0 0 1-3.492-4.531L79.898 4.79A4.218 4.218 0 0 1 84.136.945l84.222.72a4.217 4.217 0 0 1 4.165 4.592l-11.735 131.826a4.218 4.218 0 0 1-4.91 3.784"/>
            <path fill="#E7EDF4" d="M155.47 137.67l-81.546-13.914L83.944 11.18l82.722.708z"/>
            <g transform="translate(73.62 11.07)">
                <mask id="y" fill="#fff">
                    <use xlink:href="#x"/>
                </mask>
                <path fill="#E5E5E5" d="M81.85 126.6L.302 112.686 10.324.11l82.722.707z" mask="url(#y)"/>
            </g>
            <path fill="#FFF" d="M166.666 11.888l-82.722-.708s-10.973 92.676-17.993 98.615l82.62 18.036 18.095-115.943z"/>
            <path fill="#EFEFEF" d="M65.95 109.795s-9.077-4.389-8.27-16.85l73.7 17.303s15.237 30.106 18.377 9.986l-1.186 7.597-82.62-18.036z"/>
            <path fill="#235196" d="M113.345 7.082a2.075 2.075 0 1 1-4.134-.367 2.075 2.075 0 0 1 4.134.367M142.97 7.038a2.076 2.076 0 1 1-4.135-.368 2.076 2.076 0 0 1 4.136.368"/>
            <path stroke="#004F6C" stroke-linejoin="round" stroke-width="3.3" d="M111.277 6.898l-.657 7.378a2.014 2.014 0 0 0 2.01 2.193l9.856-.017.03-.35a2.114 2.114 0 0 1 2.09-1.934l.942-.007a2.114 2.114 0 0 1 2.123 2.283l10.54-.018a2.015 2.015 0 0 0 2.004-1.835l.688-7.737"/>
            <path stroke="#E3E3E3" stroke-linecap="round" stroke-width="3.3" d="M94.936 29.716l52.398 1.38M94.236 37.58l52.398 1.382M92.944 45.392l52.398 1.38M91.652 53.204l52.397 1.38M90.36 61.015l52.397 1.382"/>
            <path fill="#E6E6E6" d="M115.715 80.605a8.28 8.28 0 1 1-16.494-1.468 8.28 8.28 0 0 1 16.494 1.468"/>
            <path stroke="#E3E3E3" stroke-linecap="round" stroke-width="3.3" d="M92.165 85.074c-2.31-2.82-3.357-6.637-2.81-10.241.133-.875.485-1.879 1.336-2.12 1.254-.358 2.155 1.173 2.558 2.413l1.56 4.802c.097.302.214.63.484.798 1.269.79 1.865-2.848 3.26-2.306.76.296.523 1.47.975 2.15.509.765 1.69.634 2.493.19.804-.443 1.53-1.121 2.442-1.215.88-.09 1.743.39 2.621.295 1.527-.165 2.723-2.002 4.202-1.586"/>
            <path fill="#FFF" d="M106.867 130.102l-12.86-4.947a4.534 4.534 0 0 0-3.255 8.463l12.859 4.947a4.533 4.533 0 1 0 3.256-8.463"/>
            <path fill="#004F6C" d="M106.867 130.102l-6.43-2.473-3.255 8.463 6.429 2.473a4.533 4.533 0 1 0 3.256-8.463"/>
            <g transform="translate(87.293 127.587)">
                <mask id="A" fill="#fff">
                    <use xlink:href="#z"/>
                </mask>
                <path d="M19.451 8.452L2.827 2.056A4.513 4.513 0 0 1 .763.454 4.53 4.53 0 0 0 3.459 6.03l12.859 4.948a4.53 4.53 0 0 0 5.739-2.333 4.512 4.512 0 0 1-2.606-.194" mask="url(#A)"/>
            </g>
            <path fill="#FFF" d="M126.067 114.252L112.808 118a4.534 4.534 0 0 0 2.467 8.726l13.259-3.748a4.534 4.534 0 0 0-2.467-8.726"/>
            <path fill="#004F6C" d="M126.067 114.252l-6.63 1.874 2.468 8.725 6.629-1.873a4.534 4.534 0 0 0-2.467-8.726"/>
            <g transform="translate(109.289 117.48)">
                <mask id="C" fill="#fff">
                    <use xlink:href="#B"/>
                </mask>
                <path d="M20.238 1.596L3.098 6.442a4.512 4.512 0 0 1-2.613-.045 4.53 4.53 0 0 0 5.501 2.848l13.259-3.749A4.53 4.53 0 0 0 22.44.19a4.513 4.513 0 0 1-2.202 1.406" mask="url(#C)"/>
            </g>
            <path fill="#FFF" d="M57.67 11.421h-4.567V6.854h-5.09v4.567h-4.567v5.09h4.568v4.567h5.089v-4.567h4.567z"/>
            <path fill="#004F6C" d="M70.635 29.77h-3.1v-3.101h-3.456v3.1h-3.1v3.456h3.1v3.1h3.455v-3.1h3.101z"/>
            <path fill="#FFF" d="M192.288 21.686h-3.1v-3.101h-3.456v3.1h-3.1v3.456h3.1v3.1h3.455v-3.1h3.101z"/>
            <path fill="#38B9DB" d="M174.516 113.952l21.711-63.183c.447-1.3-.38-2.762-1.845-3.266l-36.5-12.542c-1.466-.504-3.017.141-3.464 1.441l-21.71 63.183c-.448 1.3.379 2.763 1.845 3.266l36.5 12.543c1.466.503 3.017-.142 3.463-1.442"/>
            <path fill="#235196" d="M168.496 46.578l-8.329-2.83a2.894 2.894 0 1 0-1.863 5.48l8.33 2.832a2.895 2.895 0 0 0 1.862-5.482M187.169 52.995l-8.329-2.83a2.894 2.894 0 1 0-1.863 5.48l8.33 2.83a2.895 2.895 0 1 0 1.862-5.48M165.112 56.427l-8.33-2.83a2.894 2.894 0 1 0-1.862 5.48l8.33 2.83a2.894 2.894 0 1 0 1.862-5.48M183.785 62.843l-8.33-2.83a2.894 2.894 0 0 0-1.862 5.48l8.33 2.832a2.894 2.894 0 0 0 1.862-5.482M161.727 66.275l-8.329-2.83a2.894 2.894 0 0 0-1.862 5.48l8.329 2.832a2.894 2.894 0 0 0 1.862-5.482M180.4 72.692l-8.328-2.83a2.894 2.894 0 1 0-1.863 5.48l8.33 2.83a2.894 2.894 0 1 0 1.862-5.481M158.237 76.434l-8.33-2.83a2.894 2.894 0 1 0-1.862 5.48l8.33 2.831a2.894 2.894 0 1 0 1.862-5.48M176.91 82.85l-8.33-2.83a2.894 2.894 0 1 0-1.862 5.482l8.33 2.83a2.894 2.894 0 1 0 1.862-5.481M154.775 86.508l-8.33-2.83a2.894 2.894 0 1 0-1.862 5.481l8.33 2.83a2.894 2.894 0 0 0 1.862-5.48M173.448 92.925l-8.329-2.83a2.894 2.894 0 1 0-1.862 5.48l8.329 2.83a2.894 2.894 0 1 0 1.862-5.48M151.39 96.357l-8.328-2.83a2.894 2.894 0 1 0-1.863 5.48l8.33 2.83a2.895 2.895 0 1 0 1.862-5.48M170.064 102.773l-8.329-2.83a2.894 2.894 0 1 0-1.863 5.481l8.33 2.83a2.895 2.895 0 1 0 1.862-5.48"/>
            <path fill="#FFF" d="M169.049 44.97l-8.33-2.83a2.894 2.894 0 1 0-1.862 5.48l8.33 2.83a2.894 2.894 0 1 0 1.862-5.48"/>
            <g transform="translate(156.846 43.766)">
                <mask id="E" fill="#fff">
                    <use xlink:href="#D"/>
                </mask>
                <path d="M12.275 4.993L1.507 1.334A2.878 2.878 0 0 1 .15.364a2.893 2.893 0 0 0 1.86 3.49l8.33 2.83a2.892 2.892 0 0 0 3.602-1.633 2.877 2.877 0 0 1-1.667-.058" mask="url(#E)"/>
            </g>
            <path fill="#FFF" d="M187.722 51.386l-8.33-2.83a2.894 2.894 0 1 0-1.862 5.48l8.33 2.831a2.894 2.894 0 1 0 1.862-5.48"/>
            <g transform="translate(175.275 50.305)">
                <mask id="G" fill="#fff">
                    <use xlink:href="#F"/>
                </mask>
                <path d="M12.519 4.87L1.751 1.213A2.882 2.882 0 0 1 .394.242a2.893 2.893 0 0 0 1.861 3.49l8.329 2.83a2.892 2.892 0 0 0 3.603-1.633 2.883 2.883 0 0 1-1.668-.058" mask="url(#G)"/>
            </g>
            <path fill="#FFF" d="M165.61 54.973l-8.328-2.83a2.894 2.894 0 1 0-1.863 5.481l8.33 2.83a2.895 2.895 0 1 0 1.862-5.48"/>
            <g transform="translate(153.28 53.872)">
                <mask id="I" fill="#fff">
                    <use xlink:href="#H"/>
                </mask>
                <path d="M12.404 4.89L1.636 1.233A2.885 2.885 0 0 1 .279.262a2.891 2.891 0 0 0 1.861 3.49l8.33 2.83a2.892 2.892 0 0 0 3.601-1.633 2.879 2.879 0 0 1-1.667-.058" mask="url(#I)"/>
            </g>
            <path fill="#FFF" d="M184.285 61.39l-8.33-2.83a2.894 2.894 0 1 0-1.862 5.48l8.33 2.831a2.894 2.894 0 0 0 1.862-5.481"/>
            <g transform="translate(171.708 60.411)">
                <mask id="K" fill="#fff">
                    <use xlink:href="#J"/>
                </mask>
                <path d="M12.649 4.768L1.88 1.11A2.879 2.879 0 0 1 .524.14a2.892 2.892 0 0 0 1.86 3.49l8.33 2.83a2.892 2.892 0 0 0 3.602-1.633c-.531.14-1.109.133-1.667-.058" mask="url(#K)"/>
            </g>
            <path fill="#FFF" d="M162.174 64.977l-8.33-2.83a2.894 2.894 0 1 0-1.862 5.48l8.33 2.831a2.894 2.894 0 0 0 1.862-5.481"/>
            <g transform="translate(149.713 63.978)">
                <mask id="M" fill="#fff">
                    <use xlink:href="#L"/>
                </mask>
                <path d="M12.533 4.788L1.766 1.13A2.882 2.882 0 0 1 .408.16 2.892 2.892 0 0 0 2.27 3.65L10.6 6.48A2.893 2.893 0 0 0 14.2 4.847a2.881 2.881 0 0 1-1.667-.059" mask="url(#M)"/>
            </g>
            <path fill="#FFF" d="M180.847 71.394l-8.33-2.83a2.894 2.894 0 1 0-1.862 5.48l8.33 2.83a2.894 2.894 0 1 0 1.862-5.48"/>
            <g transform="translate(168.141 70.517)">
                <mask id="O" fill="#fff">
                    <use xlink:href="#N"/>
                </mask>
                <path d="M12.778 4.666L2.01 1.007A2.88 2.88 0 0 1 .653.037a2.893 2.893 0 0 0 1.861 3.49l8.329 2.83a2.892 2.892 0 0 0 3.602-1.633 2.883 2.883 0 0 1-1.667-.058" mask="url(#O)"/>
            </g>
            <path fill="#FFF" d="M158.736 74.98l-8.329-2.83a2.894 2.894 0 1 0-1.863 5.481l8.33 2.83a2.895 2.895 0 1 0 1.862-5.48"/>
            <g transform="translate(146.146 74.084)">
                <mask id="Q" fill="#fff">
                    <use xlink:href="#P"/>
                </mask>
                <path d="M12.662 4.686L1.895 1.027A2.882 2.882 0 0 1 .537.057 2.892 2.892 0 0 0 2.4 3.547l8.329 2.83a2.892 2.892 0 0 0 3.602-1.633 2.883 2.883 0 0 1-1.668-.058" mask="url(#Q)"/>
            </g>
            <path fill="#FFF" d="M177.41 81.397l-8.33-2.83a2.894 2.894 0 0 0-1.862 5.48l8.33 2.832a2.894 2.894 0 0 0 1.862-5.482"/>
            <g transform="translate(165.17 80.029)">
                <mask id="S" fill="#fff">
                    <use xlink:href="#R"/>
                </mask>
                <path d="M12.313 5.158L1.545 1.499A2.879 2.879 0 0 1 .188.53a2.893 2.893 0 0 0 1.86 3.49l8.33 2.83a2.891 2.891 0 0 0 3.602-1.633c-.531.14-1.108.132-1.667-.058" mask="url(#S)"/>
            </g>
            <path fill="#FFF" d="M155.299 84.984l-8.33-2.83a2.894 2.894 0 1 0-1.862 5.481l8.33 2.83a2.894 2.894 0 0 0 1.862-5.48"/>
            <g transform="translate(142.58 83.596)">
                <mask id="U" fill="#fff">
                    <use xlink:href="#T"/>
                </mask>
                <path d="M12.792 5.178L2.024 1.52A2.882 2.882 0 0 1 .667.55a2.892 2.892 0 0 0 1.86 3.49l8.33 2.83a2.892 2.892 0 0 0 3.602-1.633 2.876 2.876 0 0 1-1.667-.058" mask="url(#U)"/>
            </g>
            <path fill="#FFF" d="M173.972 91.401l-8.33-2.83a2.894 2.894 0 1 0-1.862 5.48l8.33 2.831a2.894 2.894 0 1 0 1.862-5.481"/>
            <g transform="translate(161.602 90.135)">
                <mask id="W" fill="#fff">
                    <use xlink:href="#V"/>
                </mask>
                <path d="M12.442 5.056L1.675 1.397A2.88 2.88 0 0 1 .317.427a2.893 2.893 0 0 0 1.861 3.49l8.329 2.83a2.893 2.893 0 0 0 3.602-1.633 2.883 2.883 0 0 1-1.667-.058" mask="url(#W)"/>
            </g>
            <path fill="#FFF" d="M151.861 94.988l-8.329-2.83a2.894 2.894 0 1 0-1.862 5.48l8.329 2.831a2.894 2.894 0 1 0 1.862-5.48"/>
            <g transform="translate(139.607 93.702)">
                <mask id="Y" fill="#fff">
                    <use xlink:href="#X"/>
                </mask>
                <path d="M12.327 5.076L1.559 1.417A2.88 2.88 0 0 1 .202.447a2.892 2.892 0 0 0 1.86 3.49l8.33 2.83a2.892 2.892 0 0 0 3.602-1.633 2.876 2.876 0 0 1-1.667-.058" mask="url(#Y)"/>
            </g>
            <path fill="#FFF" d="M170.535 101.405l-8.33-2.83a2.894 2.894 0 0 0-1.862 5.48l8.33 2.831a2.894 2.894 0 0 0 1.862-5.481"/>
            <g transform="translate(158.035 100.241)">
                <mask id="aa" fill="#fff">
                    <use xlink:href="#Z"/>
                </mask>
                <path d="M12.571 4.954L1.804 1.294A2.874 2.874 0 0 1 .446.324a2.892 2.892 0 0 0 1.862 3.49l8.328 2.831a2.892 2.892 0 0 0 3.602-1.634c-.53.14-1.107.132-1.667-.057" mask="url(#aa)"/>
            </g>
            <path fill="#309FBC" d="M178.493 126.338a3.912 3.912 0 1 1-7.824.001 3.912 3.912 0 0 1 7.824 0M27.27 113.297a3.912 3.912 0 1 1-7.824 0 3.912 3.912 0 0 1 7.825 0M184.282 134.563a2.071 2.071 0 1 1-4.143 0 2.071 2.071 0 0 1 4.143 0M17.016 106.489a2.071 2.071 0 1 1-4.142 0 2.071 2.071 0 0 1 4.142 0"/>
        </g>
    </g>
</svg>
